<svg xmlns="http://www.w3.org/2000/svg" viewBox="0 0 128 128" fill="none">
  <rect width="128" height="128" rx="28" fill="#EEF4EE"/>
  <circle cx="64" cy="64" r="46" fill="#FCFFFC"/>
  <path d="M34 104C40 86 50 78 64 78C78 78 88 86 94 104" fill="#1F4333"/>
  <path d="M53 86H75L72 104H56L53 86Z" fill="#FBF8F2"/>
  <path d="M60 86H68L71 104H57L60 86Z" fill="#4B8A5F"/>
  <circle cx="64" cy="50" r="19" fill="#E8BF9B"/>
  <path d="M46 49C48 35 57 28 69 28C79 28 87 35 90 45C83 41 76 39 68 39C59 39 52 42 46 49Z" fill="#2E2B31"/>
  <circle cx="57" cy="52" r="2.4" fill="#202633"/>
  <circle cx="71" cy="52" r="2.4" fill="#202633"/>
  <path d="M58 61C60 63 62 64 64 64C66 64 68 63 70 61" stroke="#B16B58" stroke-linecap="round" stroke-width="2.2"/>
  <path d="M84 39L90 33L96 37L104 28" stroke="#2F6C48" stroke-linecap="round" stroke-linejoin="round" stroke-width="3"/>
  <path d="M102 28H104V34" stroke="#2F6C48" stroke-linecap="round" stroke-linejoin="round" stroke-width="3"/>
</svg>
