<svg xmlns="http://www.w3.org/2000/svg" viewBox="0 0 128 128" fill="none">
  <rect width="128" height="128" rx="28" fill="#EEF1F7"/>
  <circle cx="64" cy="64" r="46" fill="#FCFDFF"/>
  <path d="M34 104C40 86 50 78 64 78C78 78 88 86 94 104" fill="#384258"/>
  <path d="M52 86H76L74 104H54L52 86Z" fill="#F6F4F0"/>
  <circle cx="64" cy="51" r="18.5" fill="#E9C3A2"/>
  <path d="M44 51C46 37 55 30 64 30C73 30 82 37 84 51C80 47 74 45 64 45C54 45 48 47 44 51Z" fill="#F5F2EC"/>
  <path d="M45 40C49 33 56 29 64 29C72 29 79 33 83 40" stroke="#D8D4CB" stroke-linecap="round" stroke-width="5"/>
  <circle cx="57" cy="53" r="2.4" fill="#252B36"/>
  <circle cx="71" cy="53" r="2.4" fill="#252B36"/>
  <path d="M58 61C60 63 62 64 64 64C66 64 68 63 70 61" stroke="#B16B58" stroke-linecap="round" stroke-width="2.2"/>
  <path d="M91 31V43" stroke="#4E5872" stroke-linecap="round" stroke-width="2.8"/>
  <path d="M84 33H98" stroke="#4E5872" stroke-linecap="round" stroke-width="2.8"/>
  <path d="M84 33L87 39" stroke="#4E5872" stroke-linecap="round" stroke-width="2.2"/>
  <path d="M98 33L95 39" stroke="#4E5872" stroke-linecap="round" stroke-width="2.2"/>
  <path d="M87 39H95" stroke="#4E5872" stroke-linecap="round" stroke-width="2.2"/>
</svg>
