<svg xmlns="http://www.w3.org/2000/svg" viewBox="0 0 128 128" fill="none">
  <rect width="128" height="128" rx="28" fill="#F5ECE7"/>
  <circle cx="64" cy="64" r="46" fill="#FFFDFC"/>
  <path d="M34 104C40 86 50 78 64 78C78 78 88 86 94 104" fill="#2E4054"/>
  <path d="M56 86H72L74 104H54L56 86Z" fill="#F6F1E7"/>
  <path d="M64 86L70 104H58L64 86Z" fill="#B5524F"/>
  <circle cx="64" cy="50" r="19" fill="#E8BF9B"/>
  <path d="M46 48C48 36 54 29 63 29C74 29 83 35 87 46C80 43 74 42 66 42C59 42 52 44 46 48Z" fill="#51433B"/>
  <circle cx="57" cy="53" r="2.4" fill="#232A36"/>
  <circle cx="71" cy="53" r="2.4" fill="#232A36"/>
  <path d="M57 61C60 63 62 64 64 64C66 64 68 63 71 61" stroke="#B16B58" stroke-linecap="round" stroke-width="2.2"/>
  <rect x="83" y="22" width="24" height="18" rx="6" fill="#FFFFFF" stroke="#D8CAC0"/>
  <path d="M89 31H101" stroke="#8F4F4C" stroke-linecap="round" stroke-width="3"/>
  <circle cx="54" cy="94" r="5" fill="#D9C7B0"/>
</svg>
