<svg xmlns="http://www.w3.org/2000/svg" viewBox="0 0 128 128" fill="none">
  <rect width="128" height="128" rx="28" fill="#F4EEF4"/>
  <circle cx="64" cy="64" r="46" fill="#FFFDFF"/>
  <path d="M34 104C40 86 50 78 64 78C78 78 88 86 94 104" fill="#6C4E67"/>
  <path d="M48 88C53 83 58 81 64 81C70 81 75 83 80 88L74 104H54L48 88Z" fill="#8B5A7D"/>
  <circle cx="64" cy="50" r="19" fill="#E9C2A1"/>
  <path d="M46 47C48 38 54 31 64 31C74 31 82 37 85 46C80 44 74 43 67 43C59 43 52 44 46 47Z" fill="#41333F"/>
  <path d="M42 42C47 31 57 26 67 26C76 26 84 29 90 36C79 36 69 35 57 37C51 38 46 39 42 42Z" fill="#7B466D"/>
  <circle cx="57" cy="53" r="2.4" fill="#202633"/>
  <circle cx="71" cy="53" r="2.4" fill="#202633"/>
  <path d="M58 61C60 63 62 64 64 64C66 64 68 63 70 61" stroke="#B16B58" stroke-linecap="round" stroke-width="2.2"/>
  <path d="M92 34L98 28L104 34" stroke="#8B5A7D" stroke-linecap="round" stroke-linejoin="round" stroke-width="2.8"/>
  <path d="M98 28V42" stroke="#8B5A7D" stroke-linecap="round" stroke-width="2.8"/>
  <path d="M93 42L102 51" stroke="#C27DA8" stroke-linecap="round" stroke-width="3"/>
</svg>
